:SAMPLES-PER-SECOND 30
:FULLY-SPECIFIED
:DEGREES
1
root  90.9839 39.1704 -1.0642 -153.109 -86.0476 149.462
RightUpLeg  -2.28896 -7.90705 -4.07282
RightLeg  7.54805 10.4417 0.600634
RightFoot  -2.65455 0.0302367 -0.62541
RightToes  9.54606e-009 0 -3.6325e-017
Spine  -2.44573 1.49945 3.34781
Spine1  11.3536 2.35415 -2.63868
HEad  -15.5873 -6.2936 -2.22273
LeftShoulder1  -0.201138 4.03159 -31.9856
LeftArm  8.88592 2.40295 -45.5544
LeftForeArm  27.9568 -15.8299 -7.40183
LeftHand  -0.134118 10.2674 -1.93653
RightShoulder  -0.987736 -6.16203 30.5886
RightArm  24.9614 5.53968 49.7569
RightForeArm  16.578 12.0496 8.53105
RightHand  0.0184595 0.413297 0.324995
LeftUpLeg  1.14036 5.13456 0.973249
LeftLeg  6.18004 3.38652 1.14509
LeftFoot  -4.627 0.00447811 0.390838
LeftToes  -8.26734e-010 9.74065e-011 1.64617e-011
2
root  90.9663 39.1656 -1.07516 -155.37 -85.8719 151.846
RightUpLeg  -2.4827 -7.77543 -3.92002
RightLeg  7.66143 10.5286 0.57865
RightFoot  -2.68322 0.0290052 -0.606279
RightToes  9.54606e-009 0 -3.6325e-017
Spine  -2.51867 1.61668 3.5367
Spine1  11.2297 2.49081 -2.73579
HEad  -15.4153 -6.05843 -2.36684
LeftShoulder1  -0.204239 4.03948 -32.0013
LeftArm  8.599 2.47888 -45.43
LeftForeArm  28.3444 -15.5645 -7.5419
LeftHand  -0.131802 10.1956 -1.96103
RightShoulder  -1.00913 -6.21198 30.6979
RightArm  25.0176 5.47716 49.7
RightForeArm  16.6445 12.0231 8.55418
RightHand  0.0126844 0.332648 0.220498
LeftUpLeg  1.12614 5.23301 1.11639
LeftLeg  6.10575 3.35049 1.09298
LeftFoot  -4.69505 0.00162029 0.435252
LeftToes  -8.26734e-010 9.74065e-011 1.64617e-011
3
root  90.9239 39.1745 -1.10935 -159.897 -85.2635 156.568
RightUpLeg  -2.61794 -7.40535 -3.60203
RightLeg  7.4153 10.8106 0.401722
RightFoot  -2.56507 0.030902 -0.635744
RightToes  9.54606e-009 0 -3.6325e-017
Spine  -2.78067 1.99904 3.70316
Spine1  11.1487 2.8921 -2.88152
HEad  -15.3368 -5.84178 -2.32381
LeftShoulder1  -0.217825 4.07453 -32.0373
LeftArm  7.99214 2.59325 -45.2393
LeftForeArm  29.3879 -15.0468 -7.8004
LeftHand  -0.0838188 8.5544 -1.4137
RightShoulder  -1.02846 -6.25168 30.8669
RightArm  25.2326 5.32162 49.4367
RightForeArm  16.2719 11.9898 8.62096
RightHand  0.0148684 0.724476 0.212342
LeftUpLeg  1.15284 5.62668 1.37791
LeftLeg  5.98908 3.67691 0.928225
LeftFoot  -4.65599 -0.0123072 0.651708
LeftToes  -8.26734e-010 9.74065e-011 1.64617e-011
4
root  90.8818 39.1815 -1.14302 -164.65 -84.6928 161.535
RightUpLeg  -2.79607 -6.93724 -3.14424
RightLeg  7.2483 10.962 0.206763
RightFoot  -2.46767 0.0311345 -0.639355
RightToes  9.54606e-009 0 -3.6325e-017
Spine  -3.41989 2.30864 4.2085
Spine1  11.629 3.28242 -3.29697
HEad  -15.3669 -5.45877 -2.14144
LeftShoulder1  -0.182229 3.9828 -31.9248
LeftArm  7.75774 2.85025 -45.1562
LeftForeArm  29.6003 -14.9551 -7.82882
LeftHand  -0.0997059 8.99453 -1.42849
RightShoulder  -1.01021 -6.20647 30.813
RightArm  25.1325 5.16801 49.5002
RightForeArm  15.9567 11.949 8.64341
RightHand  -0.000236166 1.14736 -0.116787
LeftUpLeg  1.13255 6.09284 1.77365
LeftLeg  5.91126 3.92731 0.760152
LeftFoot  -4.70705 -0.0180649 0.741193
LeftToes  -8.26734e-010 9.74065e-011 1.64617e-011
5
root  90.8613 39.1731 -1.15645 -165.17 -84.694 161.967
RightUpLeg  -2.6297 -6.85895 -3.07126
RightLeg  7.17773 10.9196 0.157141
RightFoot  -2.54853 0.0345715 -0.692749
RightToes  9.54606e-009 0 -3.6325e-017
Spine  -3.35446 2.34135 4.24008
Spine1  11.6199 3.31738 -3.31221
HEad  -14.681 -4.79603 -2.39089
LeftShoulder1  -0.160656 3.92597 -31.9239
LeftArm  7.68774 3.00964 -45.047
LeftForeArm  29.6126 -14.7688 -7.95437
LeftHand  -0.180855 11.6734 -2.04431
RightShoulder  -1.0125 -6.20852 30.8689
RightArm  24.7759 5.02324 49.3126
RightForeArm  16.3316 11.7441 8.67534
RightHand  0.0112957 1.11718 0.0871325
LeftUpLeg  1.30402 6.14802 1.86624
LeftLeg  5.87399 3.8576 0.74831
LeftFoot  -4.90562 -0.0062379 0.557379
LeftToes  -8.26734e-010 9.74065e-011 1.64617e-011
6
root  90.8624 39.1771 -1.15846 -164.455 -84.8562 161.187
RightUpLeg  -2.55509 -6.91561 -3.12071
RightLeg  7.22306 10.7974 0.166892
RightFoot  -2.54709 0.0336957 -0.679144
RightToes  9.54606e-009 0 -3.6325e-017
Spine  -3.2419 2.29314 4.28679
Spine1  11.6455 3.29002 -3.36755
HEad  -14.7668 -5.0489 -2.35962
LeftShoulder1  -0.0812457 3.71818 -31.7943
LeftArm  7.35648 3.244 -45.0621
LeftForeArm  30.1969 -14.4514 -8.11686
LeftHand  -0.0960952 10.5414 -0.843182
RightShoulder  -0.996263 -6.16545 30.8599
RightArm  23.934 4.79468 49.066
RightForeArm  17.0419 11.2762 8.72138
RightHand  0.0501729 1.81303 0.682729
LeftUpLeg  1.41348 6.17742 1.87176
LeftLeg  5.7478 3.68945 0.687172
LeftFoot  -4.86215 -0.006775 0.565727
LeftToes  -8.26734e-010 9.74065e-011 1.64617e-011
7
root  90.8585 39.1762 -1.1579 -163 -85.0716 159.717
RightUpLeg  -2.48466 -7.05119 -3.23657
RightLeg  7.19984 10.6705 0.214862
RightFoot  -2.6105 0.037954 -0.745297
RightToes  9.54606e-009 0 -3.6325e-017
Spine  -3.35226 2.18012 4.22554
Spine1  11.8905 3.18089 -3.35541
HEad  -14.7377 -5.27552 -2.35316
LeftShoulder1  -0.0804518 3.71607 -31.7702
LeftArm  6.33047 3.22746 -45.0149
LeftForeArm  31.3661 -13.8602 -8.31944
LeftHand  -0.0937534 9.26976 -1.2941
RightShoulder  -0.987101 -6.13608 30.9249
RightArm  23.2609 4.79851 48.8692
RightForeArm  16.5056 10.703 8.88957
RightHand  -0.00616966 2.98429 -0.327946
LeftUpLeg  1.38972 6.12723 1.80317
LeftLeg  5.76341 3.48971 0.671473
LeftFoot  -4.8018 -0.0174737 0.732006
LeftToes  -8.26734e-010 9.74065e-011 1.64617e-011
8
root  90.8513 39.1687 -1.14968 -162.436 -85.266 159.173
RightUpLeg  -2.50263 -7.11106 -3.2725
RightLeg  7.2813 10.5508 0.26334
RightFoot  -2.69441 0.0345346 -0.692175
RightToes  9.54606e-009 0 -3.6325e-017
Spine  -3.15738 2.0541 4.35171
Spine1  11.6787 3.07142 -3.45203
HEad  -14.7269 -5.40606 -2.23295
LeftShoulder1  -0.14372 3.8812 -31.9619
LeftArm  5.01412 3.21796 -44.6162
LeftForeArm  32.8716 -13.0594 -8.57832
LeftHand  -0.0846199 7.77305 -1.85033
RightShoulder  -0.983554 -6.13477 30.8092
RightArm  23.077 4.64378 48.8189
RightForeArm  16.9298 10.4931 8.93673
RightHand  0.00587292 2.46197 -0.0845188
LeftUpLeg  1.25528 5.93201 1.72564
LeftLeg  5.95661 3.45428 0.819708
LeftFoot  -4.91447 -0.0104754 0.623237
LeftToes  -8.26734e-010 9.74065e-011 1.64617e-011
9
root  90.8382 39.1667 -1.16208 -162.504 -85.2588 159.275
RightUpLeg  -2.55745 -7.0507 -3.22065
RightLeg  7.36078 10.485 0.229827
RightFoot  -2.74751 0.031747 -0.648871
RightToes  9.54606e-009 0 -3.6325e-017
Spine  -3.37971 2.08137 4.20515
Spine1  12.0217 3.0526 -3.23023
HEad  -15.3142 -5.52341 -1.84179
LeftShoulder1  -0.180796 3.97749 -32.0479
LeftArm  4.60038 3.19177 -44.5404
LeftForeArm  33.1846 -12.7581 -8.67918
LeftHand  -0.135856 9.27273 -2.41936
RightShoulder  -0.963729 -6.0873 30.7242
RightArm  22.5353 4.59958 48.7509
RightForeArm  18.681 10.1922 8.91009
RightHand  0.0646062 1.78312 0.841047
LeftUpLeg  1.28244 5.96141 1.76392
LeftLeg  5.85177 3.43437 0.791042
LeftFoot  -4.91736 -0.0118805 0.645075
LeftToes  -8.26734e-010 9.74065e-011 1.64617e-011
10
root  90.8188 39.1665 -1.17933 -162.426 -85.1576 159.185
RightUpLeg  -2.55554 -7.02162 -3.20919
RightLeg  7.42379 10.5351 0.195612
RightFoot  -2.80499 0.0394066 -0.767865
RightToes  9.54606e-009 0 -3.6325e-017
Spine  -3.42146 2.16505 4.10151
Spine1  12.0933 3.12831 -3.14199
HEad  -15.0705 -5.8119 -1.85774
LeftShoulder1  -0.193233 4.01088 -31.9829
LeftArm  3.42955 3.29114 -44.508
LeftForeArm  34.4001 -12.1255 -8.81094
LeftHand  -0.140496 8.9109 -2.84423
RightShoulder  -0.984517 -6.14208 30.7427
RightArm  22.2612 4.52108 48.605
RightForeArm  18.1706 9.83933 9.03926
RightHand  -0.0404117 0.829019 -0.819903
LeftUpLeg  1.40758 6.02366 1.78411
LeftLeg  5.74149 3.47281 0.732543
LeftFoot  -4.94418 -0.00668731 0.564364
LeftToes  -8.26734e-010 9.74065e-011 1.64617e-011
11
root  90.8127 39.1696 -1.1829 -162.622 -85.0613 159.351
RightUpLeg  -2.52098 -6.97811 -3.20722
RightLeg  7.40301 10.604 0.170076
RightFoot  -2.79171 0.0407878 -0.789324
RightToes  9.54606e-009 0 -3.6325e-017
Spine  -2.95487 2.22295 4.2805
Spine1  11.5049 3.24788 -3.41881
HEad  -14.117 -5.16749 -1.95532
LeftShoulder1  -0.193106 4.01012 -32.0159
LeftArm  2.96922 3.44976 -44.3498
LeftForeArm  35.2603 -11.7138 -8.9439
LeftHand  -0.090843 7.69938 -2.29929
RightShoulder  -1.01832 -6.22167 30.904
RightArm  22.2211 4.28648 48.1908
RightForeArm  18.3101 9.75469 9.05676
RightHand  -0.0406028 1.1201 -0.83546
LeftUpLeg  1.3987 6.03912 1.77848
LeftLeg  5.86974 3.5212 0.744432
LeftFoot  -4.8903 -0.00818367 0.58762
LeftToes  -8.26734e-010 9.74065e-011 1.64617e-011
12
root  90.811 39.1785 -1.18248 -161.668 -85.1663 158.396
RightUpLeg  -2.56884 -7.0387 -3.28508
RightLeg  7.55171 10.5717 0.226645
RightFoot  -2.78202 0.0381191 -0.747863
RightToes  9.54606e-009 0 -3.6325e-017
Spine  -2.91005 2.20903 4.21852
Spine1  11.5251 3.21064 -3.32232
HEad  -14.4714 -5.3772 -1.87017
LeftShoulder1  -0.177901 3.96953 -32.0766
LeftArm  3.45042 3.53741 -44.3606
LeftForeArm  35.0991 -11.9268 -8.92851
LeftHand  -0.104214 8.23734 -2.34028
RightShoulder  -1.02018 -6.23267 30.8222
RightArm  21.8249 4.12001 47.9985
RightForeArm  18.9803 9.67038 8.96195
RightHand  0.00209714 0.559565 -0.0294694
LeftUpLeg  1.33579 5.99346 1.73298
LeftLeg  5.96169 3.43886 0.754232
LeftFoot  -4.84416 0.000863593 0.447012
LeftToes  -8.26734e-010 9.74065e-011 1.64617e-011
13
root  90.7979 39.1755 -1.20364 -162.685 -85.3338 159.182
RightUpLeg  -2.18098 -6.93346 -3.12473
RightLeg  7.37685 10.32 0.100663
RightFoot  -2.82107 0.0325887 -0.661946
RightToes  9.54606e-009 0 -3.6325e-017
Spine  -2.66736 2.19101 4.21063
Spine1  11.6387 3.15791 -3.13615
HEad  -14.8866 -5.09546 -1.45325
LeftShoulder1  -0.139455 3.86933 -32.0297
LeftArm  3.0464 3.58593 -44.4217
LeftForeArm  35.5159 -11.8018 -8.91022
LeftHand  -0.093367 7.86434 -2.55362
RightShoulder  -1.02781 -6.254 30.8121
RightArm  21.862 3.83416 47.7682
RightForeArm  19.2823 10.1012 8.75821
RightHand  0.00764971 -0.922645 0.316056
LeftUpLeg  1.56898 6.1544 1.96142
LeftLeg  6.01145 3.123 0.692798
LeftFoot  -4.87541 -0.00831835 0.589713
LeftToes  -8.26734e-010 9.74065e-011 1.64617e-011
14
root  90.7694 39.1894 -1.27225 -170.087 -85.4669 165.902
RightUpLeg  -0.988103 -6.48586 -2.41821
RightLeg  6.63828 9.83843 -0.178079
RightFoot  -2.60122 0.0275074 -0.597026
RightToes  9.54606e-009 0 -3.6325e-017
Spine  -2.08814 2.10109 4.58437
Spine1  12.0562 3.04319 -3.05618
HEad  -14.0389 -5.03123 -1.98939
LeftShoulder1  -0.130334 3.84709 -31.8511
LeftArm  3.01399 3.62348 -44.5996
LeftForeArm  35.4328 -11.9663 -8.81467
LeftHand  -0.099799 8.10287 -2.33803
RightShoulder  -1.00965 -6.21576 30.6668
RightArm  21.6269 3.85473 47.8561
RightForeArm  19.2232 10.2204 8.64821
RightHand  0.0439527 0.0354523 0.943948
LeftUpLeg  2.3318 6.92982 2.99158
LeftLeg  6.23028 2.16707 0.42027
LeftFoot  -5.11854 -0.0153614 0.699176
LeftToes  -8.26734e-010 9.74065e-011 1.64617e-011
15
root  90.773 39.1806 -1.29735 -169.53 -85.4361 165.485
RightUpLeg  -1.32252 -6.44917 -2.42465
RightLeg  6.98847 9.84788 -0.0834899
RightFoot  -2.87579 0.0115296 -0.41845
RightToes  9.54606e-009 0 -3.6325e-017
Spine  -1.91203 2.11413 4.23124
Spine1  11.7259 2.9563 -2.67872
HEad  -14.2327 -5.78428 -2.20254
LeftShoulder1  -0.143066 3.88069 -31.8349
LeftArm  3.48626 3.69027 -44.621
LeftForeArm  34.8886 -12.1135 -8.83807
LeftHand  -0.117353 8.73595 -2.26696
RightShoulder  -0.985332 -6.14753 30.6988
RightArm  21.5481 3.55213 47.5629
RightForeArm  18.6216 10.4128 8.54417
RightHand  0.0474684 0.412645 0.88916
LeftUpLeg  2.17164 7.05691 3.05448
LeftLeg  6.26287 2.03512 0.292347
LeftFoot  -5.18563 -0.00613893 0.555841
LeftToes  -8.26734e-010 9.74065e-011 1.64617e-011
